<svg width="352" height="139" viewBox="0 0 352 139" fill="none" xmlns="http://www.w3.org/2000/svg">
<mask id="path-1-inside-1_80_333" fill="white">
<path fill-rule="evenodd" clip-rule="evenodd" d="M20 0C8.9543 0 0 8.9543 0 20V94C0 105.046 8.95431 114 20 114H161.566L176 139L190.434 114H332C343.046 114 352 105.046 352 94V20C352 8.95431 343.046 0 332 0H20Z"/>
</mask>
<path fill-rule="evenodd" clip-rule="evenodd" d="M20 0C8.9543 0 0 8.9543 0 20V94C0 105.046 8.95431 114 20 114H161.566L176 139L190.434 114H332C343.046 114 352 105.046 352 94V20C352 8.95431 343.046 0 332 0H20Z" fill="white"/>
<path d="M161.566 114L162.432 113.5L162.144 113H161.566V114ZM176 139L175.134 139.5L176 141L176.866 139.5L176 139ZM190.434 114V113H189.856L189.568 113.5L190.434 114ZM1 20C1 9.50659 9.50659 1 20 1V-1C8.40202 -1 -1 8.40202 -1 20H1ZM1 94V20H-1V94H1ZM20 113C9.50659 113 1 104.493 1 94H-1C-1 105.598 8.40202 115 20 115V113ZM161.566 113H20V115H161.566V113ZM176.866 138.5L162.432 113.5L160.7 114.5L175.134 139.5L176.866 138.5ZM189.568 113.5L175.134 138.5L176.866 139.5L191.3 114.5L189.568 113.5ZM332 113H190.434V115H332V113ZM351 94C351 104.493 342.493 113 332 113V115C343.598 115 353 105.598 353 94H351ZM351 20V94H353V20H351ZM332 1C342.493 1 351 9.50659 351 20H353C353 8.40202 343.598 -1 332 -1V1ZM20 1H332V-1H20V1Z" fill="#C1C1C1" mask="url(#path-1-inside-1_80_333)"/>
</svg>
